<?xml version="1.0" encoding="UTF-8" standalone="no"?>
<svg
   id="visual"
   viewBox="0 0 900 100"
   width="900"
   height="100"
   version="1.1"
   sodipodi:docname="layered-waves-haikei (6).svg"
   inkscape:version="1.4.2 (f4327f4, 2025-05-13)"
   xmlns:inkscape="http://www.inkscape.org/namespaces/inkscape"
   xmlns:sodipodi="http://sodipodi.sourceforge.net/DTD/sodipodi-0.dtd"
   xmlns="http://www.w3.org/2000/svg"
   xmlns:svg="http://www.w3.org/2000/svg">
  <defs
     id="defs2" />
  <sodipodi:namedview
     id="namedview2"
     pagecolor="#ffffff"
     bordercolor="#000000"
     borderopacity="0.25"
     inkscape:showpageshadow="2"
     inkscape:pageopacity="0.0"
     inkscape:pagecheckerboard="0"
     inkscape:deskcolor="#d1d1d1"
     inkscape:zoom="1.07"
     inkscape:cx="215.42056"
     inkscape:cy="23.831776"
     inkscape:window-width="1366"
     inkscape:window-height="705"
     inkscape:window-x="-8"
     inkscape:window-y="-8"
     inkscape:window-maximized="1"
     inkscape:current-layer="visual" />
  <rect
     x="0"
     y="0"
     width="900"
     height=""
     fill="FF6D9D"
     id="rect1" />
  <rect
     x="0"
     y="0"
     width="900"
     height="100"
     fill="#FFFFFF"
     id="rect1" />

  <path
     d="M 0,59 21.5,58 C 43,57 86,55 128.8,50.5 171.7,46 214.3,39 257.2,36.2 c 42.8,-2.9 85.8,-1.5 128.6,-1 42.9,0.5 85.5,0.1 128.4,3 C 557,41 600,47 642.8,47.8 685.7,48.7 728.3,44.3 771.2,43.7 814,43 857,46 878.5,47.5 L 900,49 V -0.93457944 L 878.5,-2.8037383 H 771.2 L 642.8,-0.93457944 H 514.2 L 385.8,-2.8037383 257.2,-0.93457944 128.8,-1.8691589 l -107.3,0 -21.5,0 z"
     fill="#9b7da6"
     id="path1"
     sodipodi:nodetypes="csccccccscccccccccccc" />
  <path
     d="m 0,34.991863 21.5,-2.2 c 21.5,-2.1 64.5,-6.5 107.3,-9.5 42.9,-3 85.5,-4.6 128.4,-3.1 42.8,1.5 85.8,6.1 128.6,7.8 42.9,1.7 85.5,0.3 128.4,-1.8 42.8,-2.2 85.8,-5.2 128.6,-6.4 42.9,-1.1 85.5,-0.5 128.4,0.2 42.8,0.7 85.8,1.3 107.3,1.7 l 21.5,0.3 V -0.00813723 H 878.5 771.2 642.8 514.2 385.8 257.2 128.8 21.5 0 Z"
     fill="#62357b"
     id="path2"
     sodipodi:nodetypes="ccccccccccccccccccccc" />
</svg>
