<?xml version="1.0" encoding="UTF-8" standalone="no"?>
<svg
   id="visual"
   viewBox="0 0 900 100"
   width="900"
   height="100"
   version="1.1"
   sodipodi:docname="layered-waves-haikei (9).svg"
   inkscape:version="1.4.2 (f4327f4, 2025-05-13)"
   xmlns:inkscape="http://www.inkscape.org/namespaces/inkscape"
   xmlns:sodipodi="http://sodipodi.sourceforge.net/DTD/sodipodi-0.dtd"
   xmlns="http://www.w3.org/2000/svg"
   xmlns:svg="http://www.w3.org/2000/svg">
  <defs
     id="defs2">
    <linearGradient
       id="swatch2"
       inkscape:swatch="solid">
      <stop
         style="stop-color:#62357b;stop-opacity:1;"
         offset="0"
         id="stop2" />
    </linearGradient>
  </defs>
  <sodipodi:namedview
     id="namedview2"
     pagecolor="#ffffff"
     bordercolor="#000000"
     borderopacity="0.25"
     inkscape:showpageshadow="2"
     inkscape:pageopacity="0.0"
     inkscape:pagecheckerboard="0"
     inkscape:deskcolor="#d1d1d1"
     inkscape:zoom="15.361502"
     inkscape:cx="352.66733"
     inkscape:cy="-38.895936"
     inkscape:window-width="1366"
     inkscape:window-height="705"
     inkscape:window-x="-8"
     inkscape:window-y="-8"
     inkscape:window-maximized="1"
     inkscape:current-layer="visual" />
  <rect
     x="0"
     y="0"
     width="900"
     height="100"
     fill="#FFFFFF"
     id="rect1" />
  <path
     d="M0 59L21.5 58C43 57 86 55 128.8 50.5C171.7 46 214.3 39 257.2 36.2C300 33.3 343 34.7 385.8 35.2C428.7 35.7 471.3 35.3 514.2 38.2C557 41 600 47 642.8 47.8C685.7 48.7 728.3 44.3 771.2 43.7C814 43 857 46 878.5 47.5L900 49L900 0L878.5 0C857 0 814 0 771.2 0C728.3 0 685.7 0 642.8 0C600 0 557 0 514.2 0C471.3 0 428.7 0 385.8 0C343 0 300 0 257.2 0C214.3 0 171.7 0 128.8 0C86 0 43 0 21.5 0L0 0Z"
     fill="#9b7da6"
     id="path1" />
  <path
     d="M 0,35 21.5,32.8 C 43,30.7 86,26.3 128.8,23.3 c 42.9,-3 85.5,-4.6 128.4,-3.1 42.8,1.5 85.8,6.1 128.6,7.8 42.9,1.7 85.5,0.3 128.4,-1.8 C 557,24 600,21 642.8,19.8 685.7,18.7 728.3,19.3 771.2,20 814,20.7 857,21.3 878.5,21.7 L 900,22 V -46 H 878.5 771.2 642.8 514.2 385.8 257.2 128.8 21.5 0 Z"
     fill="#62357b"
     id="path2"
     sodipodi:nodetypes="ccccccccccccccccccccc"
     style="stroke:#62357b;stroke-opacity:1" />
</svg>
