<svg version="1.1" xmlns:xlink="http://www.w3.org/1999/xlink" xmlns="http://www.w3.org/2000/svg" viewBox="0 3.5928143712574854 897.3 80.83832335329342" id="visual" style="max-height: 500px" width="897.3" height="80.83832335329342">
    <rect fill="#f9f9f9" height="150" width="900" y="0" x="0"/>
    <path fill="#9b7da6" d="M0 72L8.8 67.3C17.7 62.7 35.3 53.3 53 52C70.7 50.7 88.3 57.3 106 58C123.7 58.7 141.3 53.3 159 52.7C176.7 52 194.3 56 212 59.3C229.7 62.7 247.3 65.3 265 64.8C282.7 64.3 300.3 60.7 318 57.7C335.7 54.7 353.3 52.3 371 50C388.7 47.7 406.3 45.3 423.8 45.7C441.3 46 458.7 49 476.2 52.5C493.7 56 511.3 60 529 60.3C546.7 60.7 564.3 57.3 582 56C599.7 54.7 617.3 55.3 635 53.8C652.7 52.3 670.3 48.7 688 50.8C705.7 53 723.3 61 741 61.3C758.7 61.7 776.3 54.3 794 52.5C811.7 50.7 829.3 54.3 847 54.8C864.7 55.3 882.3 52.7 891.2 51.3L900 50L900 0L891.2 0C882.3 0 864.7 0 847 0C829.3 0 811.7 0 794 0C776.3 0 758.7 0 741 0C723.3 0 705.7 0 688 0C670.3 0 652.7 0 635 0C617.3 0 599.7 0 582 0C564.3 0 546.7 0 529 0C511.3 0 493.7 0 476.2 0C458.7 0 441.3 0 423.8 0C406.3 0 388.7 0 371 0C353.3 0 335.7 0 318 0C300.3 0 282.7 0 265 0C247.3 0 229.7 0 212 0C194.3 0 176.7 0 159 0C141.3 0 123.7 0 106 0C88.3 0 70.7 0 53 0C35.3 0 17.7 0 8.8 0L0 0Z"/>
    <path fill="#62357b" d="M0 35L8.8 35.5C17.7 36 35.3 37 53 36.2C70.7 35.3 88.3 32.7 106 32.5C123.7 32.3 141.3 34.7 159 34.2C176.7 33.7 194.3 30.3 212 26.7C229.7 23 247.3 19 265 17.5C282.7 16 300.3 17 318 17.2C335.7 17.3 353.3 16.7 371 18.3C388.7 20 406.3 24 423.8 24.2C441.3 24.3 458.7 20.7 476.2 20.5C493.7 20.3 511.3 23.7 529 24.2C546.7 24.7 564.3 22.3 582 21.7C599.7 21 617.3 22 635 21.7C652.7 21.3 670.3 19.7 688 20.3C705.7 21 723.3 24 741 23.7C758.7 23.3 776.3 19.7 794 21.8C811.7 24 829.3 32 847 33.7C864.7 35.3 882.3 30.7 891.2 28.3L900 26L900 0L891.2 0C882.3 0 864.7 0 847 0C829.3 0 811.7 0 794 0C776.3 0 758.7 0 741 0C723.3 0 705.7 0 688 0C670.3 0 652.7 0 635 0C617.3 0 599.7 0 582 0C564.3 0 546.7 0 529 0C511.3 0 493.7 0 476.2 0C458.7 0 441.3 0 423.8 0C406.3 0 388.7 0 371 0C353.3 0 335.7 0 318 0C300.3 0 282.7 0 265 0C247.3 0 229.7 0 212 0C194.3 0 176.7 0 159 0C141.3 0 123.7 0 106 0C88.3 0 70.7 0 53 0C35.3 0 17.7 0 8.8 1L0 1Z"/>
</svg>