<svg id="visual" viewBox="0 0 900 100" width="900" height="100" xmlns="http://www.w3.org/2000/svg" xmlns:xlink="http://www.w3.org/1999/xlink" version="1.1">
    <path d="M0 59L21.5 58C43 57 86 55 128.8 50.5C171.7 46 214.3 39 257.2 36.2C300 33.3 343 34.7 385.8 35.2C428.7 35.7 471.3 35.3 514.2 38.2C557 41 600 47 642.8 47.8C685.7 48.7 728.3 44.3 771.2 43.7C814 43 857 46 878.5 47.5L900 49L900 0L878.5 0C857 0 814 0 771.2 0C728.3 0 685.7 0 642.8 0C600 0 557 0 514.2 0C471.3 0 428.7 0 385.8 0C343 0 300 0 257.2 0C214.3 0 171.7 0 128.8 0C86 0 43 0 21.5 0L0 0Z" fill="#9b7da6">

    </path>
    <path d="M0 35L21.5 32.8C43 30.7 86 26.3 128.8 23.3C171.7 20.3 214.3 18.7 257.2 20.2C300 21.7 343 26.3 385.8 28C428.7 29.7 471.3 28.3 514.2 26.2C557 24 600 21 642.8 19.8C685.7 18.7 728.3 19.3 771.2 20C814 20.7 857 21.3 878.5 21.7L900 22L900 0L878.5 0C857 0 814 0 771.2 0C728.3 0 685.7 0 642.8 0C600 0 557 0 514.2 0C471.3 0 428.7 0 385.8 0C343 0 300 0 257.2 0C214.3 0 171.7 0 128.8 0C86 0 43 0 21.5 0L0 0Z" fill="#62357b">
    </path>
</svg>