<svg id="my-svg" version="1" baseProfile="full" width="100%" height="100%" viewBox="0 0 1366 641" xmlns="http://www.w3.org/2000/svg"><rect width="1366" height="641" fill="#f7f7f7"/><path transform="scale(1, -1)" d="M 0,641 V 0,256 C 59.18547008547009,266.3384615384615 118.37094017094017,276.67692307692306 187,254 C 255.62905982905983,231.32307692307694 333.7017094017095,175.63076923076926 415,169 C 496.2982905982905,162.36923076923074 580.8222222222221,204.79999999999998 667,226 C 753.1777777777779,247.20000000000002 841.0094017094019,247.16923076923078 918,246 C 994.9905982905981,244.83076923076922 1061.140170940171,242.52307692307693 1134,244 C 1206.859829059829,245.47692307692307 1286.4299145299146,250.73846153846154 1366,256 C 1366,256 1366,641 1366,641 Z" stroke="none" stroke-width="0" fill="#62357b90" class="transition-all duration-300 ease-in-out delay-150" style="transform-origin: center center;"/><path transform="scale(1, -1)" d="M 0,641 V 0,384 C 63.74444444444444,442.4769230769231 127.48888888888888,500.9538461538462 206,479 C 284.5111111111111,457.0461538461538 377.788888888889,354.66153846153844 453,331 C 528.211111111111,307.33846153846156 585.3555555555555,362.3999999999999 666,362 C 746.6444444444445,361.6000000000001 850.788888888889,305.7384615384616 940,318 C 1029.211111111111,330.2615384615384 1103.488888888889,410.6461538461538 1172,433 C 1240.511111111111,455.3538461538462 1303.2555555555555,419.6769230769231 1366,384 C 1366,384 1366,641 1366,641 Z" stroke="none" stroke-width="0" fill="#62357bff" class="transition-all duration-300 ease-in-out delay-150" style="transform-origin: center center;"/></svg>