<svg id="visual" viewBox="0 0 900 600" xmlns="http://www.w3.org/2000/svg" xmlns:xlink="http://www.w3.org/1999/xlink" version="1.1"><path d="M0 440L30 446.8C60 453.7 120 467.3 180 473.2C240 479 300 477 360 463.5C420 450 480 425 540 429.2C600 433.3 660 466.7 720 477.3C780 488 840 476 870 470L900 464L900 601L870 601C840 601 780 601 720 601C660 601 600 601 540 601C480 601 420 601 360 601C300 601 240 601 180 601C120 601 60 601 30 601L0 601Z" fill="#62357b" stroke-linecap="round" stroke-linejoin="miter"></path></svg>