<svg id="visual" viewBox="0 0 900 600" width="900" height="600" xmlns="http://www.w3.org/2000/svg" xmlns:xlink="http://www.w3.org/1999/xlink" version="1.1"><path d="M0 314L25 327C50 340 100 366 150 380.5C200 395 250 398 300 387C350 376 400 351 450 362.8C500 374.7 550 423.3 600 446.2C650 469 700 466 750 450C800 434 850 405 875 390.5L900 376L900 601L875 601C850 601 800 601 750 601C700 601 650 601 600 601C550 601 500 601 450 601C400 601 350 601 300 601C250 601 200 601 150 601C100 601 50 601 25 601L0 601Z" fill="#62357b" stroke-linecap="round" stroke-linejoin="miter"></path></svg>