<?xml version="1.0" standalone="no"?>
<svg xmlns:xlink="http://www.w3.org/1999/xlink" id="wave" style="transform:rotate(180deg); transition: 0.3s" viewBox="0 0 1440 360" version="1.1" xmlns="http://www.w3.org/2000/svg"><defs><linearGradient id="sw-gradient-0" x1="0" x2="0" y1="1" y2="0"><stop stop-color="rgba(240, 214, 255, 1)" offset="0%"/><stop stop-color="rgba(155, 125, 166, 1)" offset="100%"/></linearGradient></defs><path style="transform:translate(0, 0px); opacity:1" fill="url(#sw-gradient-0)" d="M0,252L30,228C60,204,120,156,180,168C240,180,300,252,360,240C420,228,480,132,540,114C600,96,660,156,720,156C780,156,840,96,900,96C960,96,1020,156,1080,162C1140,168,1200,120,1260,138C1320,156,1380,240,1440,228C1500,216,1560,108,1620,72C1680,36,1740,72,1800,126C1860,180,1920,252,1980,240C2040,228,2100,132,2160,90C2220,48,2280,60,2340,66C2400,72,2460,72,2520,96C2580,120,2640,168,2700,180C2760,192,2820,168,2880,168C2940,168,3000,192,3060,198C3120,204,3180,192,3240,204C3300,216,3360,252,3420,240C3480,228,3540,168,3600,156C3660,144,3720,180,3780,168C3840,156,3900,96,3960,72C4020,48,4080,60,4140,84C4200,108,4260,144,4290,162L4320,180L4320,360L4290,360C4260,360,4200,360,4140,360C4080,360,4020,360,3960,360C3900,360,3840,360,3780,360C3720,360,3660,360,3600,360C3540,360,3480,360,3420,360C3360,360,3300,360,3240,360C3180,360,3120,360,3060,360C3000,360,2940,360,2880,360C2820,360,2760,360,2700,360C2640,360,2580,360,2520,360C2460,360,2400,360,2340,360C2280,360,2220,360,2160,360C2100,360,2040,360,1980,360C1920,360,1860,360,1800,360C1740,360,1680,360,1620,360C1560,360,1500,360,1440,360C1380,360,1320,360,1260,360C1200,360,1140,360,1080,360C1020,360,960,360,900,360C840,360,780,360,720,360C660,360,600,360,540,360C480,360,420,360,360,360C300,360,240,360,180,360C120,360,60,360,30,360L0,360Z"/><defs><linearGradient id="sw-gradient-1" x1="0" x2="0" y1="1" y2="0"><stop stop-color="rgba(98, 53, 123, 1)" offset="0%"/><stop stop-color="rgba(98, 53, 123, 1)" offset="100%"/></linearGradient></defs><path style="transform:translate(0, 50px); opacity:0.9" fill="url(#sw-gradient-1)" d="M0,72L30,102C60,132,120,192,180,234C240,276,300,300,360,270C420,240,480,156,540,156C600,156,660,240,720,276C780,312,840,300,900,282C960,264,1020,240,1080,216C1140,192,1200,168,1260,180C1320,192,1380,240,1440,258C1500,276,1560,264,1620,252C1680,240,1740,228,1800,186C1860,144,1920,72,1980,60C2040,48,2100,96,2160,114C2220,132,2280,120,2340,132C2400,144,2460,180,2520,210C2580,240,2640,264,2700,276C2760,288,2820,288,2880,294C2940,300,3000,312,3060,264C3120,216,3180,108,3240,72C3300,36,3360,72,3420,126C3480,180,3540,252,3600,246C3660,240,3720,156,3780,156C3840,156,3900,240,3960,240C4020,240,4080,156,4140,150C4200,144,4260,216,4290,252L4320,288L4320,360L4290,360C4260,360,4200,360,4140,360C4080,360,4020,360,3960,360C3900,360,3840,360,3780,360C3720,360,3660,360,3600,360C3540,360,3480,360,3420,360C3360,360,3300,360,3240,360C3180,360,3120,360,3060,360C3000,360,2940,360,2880,360C2820,360,2760,360,2700,360C2640,360,2580,360,2520,360C2460,360,2400,360,2340,360C2280,360,2220,360,2160,360C2100,360,2040,360,1980,360C1920,360,1860,360,1800,360C1740,360,1680,360,1620,360C1560,360,1500,360,1440,360C1380,360,1320,360,1260,360C1200,360,1140,360,1080,360C1020,360,960,360,900,360C840,360,780,360,720,360C660,360,600,360,540,360C480,360,420,360,360,360C300,360,240,360,180,360C120,360,60,360,30,360L0,360Z"/></svg>