<svg id="visual" viewBox="0 0 900 600" width="900" height="600" xmlns="http://www.w3.org/2000/svg" xmlns:xlink="http://www.w3.org/1999/xlink" version="1.1"><rect x="0" y="0" width="900" height="600" fill="#62357b"></rect><path d="M0 399L25 396.8C50 394.7 100 390.3 150 387.2C200 384 250 382 300 382.8C350 383.7 400 387.3 450 400.8C500 414.3 550 437.7 600 447.5C650 457.3 700 453.7 750 441C800 428.3 850 406.7 875 395.8L900 385L900 601L875 601C850 601 800 601 750 601C700 601 650 601 600 601C550 601 500 601 450 601C400 601 350 601 300 601C250 601 200 601 150 601C100 601 50 601 25 601L0 601Z" fill="#FFFFFF" stroke-linecap="round" stroke-linejoin="miter"></path></svg>