<svg id="visual" viewBox="0 0 900 100" width="900" height="100" xmlns="http://www.w3.org/2000/svg" xmlns:xlink="http://www.w3.org/1999/xlink" version="1.1">
    <rect x="0" y="0" width="900" height="100" fill="#FFFFFF"></rect><path d="M0 61L30 65.7C60 70.3 120 79.7 180 75.2C240 70.7 300 52.3 360 41.8C420 31.3 480 28.7 540 37C600 45.3 660 64.7 720 74.3C780 84 840 84 870 84L900 84L900 101L870 101C840 101 780 101 720 101C660 101 600 101 540 101C480 101 420 101 360 101C300 101 240 101 180 101C120 101 60 101 30 101L0 101Z" fill="#62357b"></path></svg>